<?xml version="1.0" encoding="utf-8"?>
<!-- Generator: Adobe Illustrator 27.9.0, SVG Export Plug-In . SVG Version: 6.00 Build 0)  -->
<svg version="1.1" id="Layer_1" xmlns="http://www.w3.org/2000/svg" xmlns:xlink="http://www.w3.org/1999/xlink" x="0px" y="0px"
	 viewBox="0 0 363 224" style="enable-background:new 0 0 363 224;" xml:space="preserve">
<style type="text/css">
	.st0{fill:#2C3239;}
	.st1{fill:#4F5358;}
	.st2{fill:#FD3D0C;}
	.st3{fill:#FFFFFF;}
	.st4{font-family:'PTSans-Caption';}
	.st5{font-size:20px;}
	.st6{fill:none;}
</style>
<g>
	<path class="st0" d="M70,30h223c5.5,0,10,4.5,10,10v84c0,5.5-4.5,10-10,10H70c-5.5,0-10-4.5-10-10V40C60,34.5,64.5,30,70,30z"/>
	<path class="st1" d="M152.8,58.3c-0.4-0.2-0.7-0.3-1.2-0.5c-0.4-0.1-0.8-0.2-1.2-0.3c-0.4-0.1-0.7-0.1-0.9-0.1
		c-0.9,0-1.7,0.2-2.4,0.5c-0.7,0.3-1.3,0.8-1.9,1.3c-0.5,0.6-0.9,1.3-1.2,2.1c-0.3,0.8-0.4,1.6-0.4,2.6c0,0.9,0.1,1.7,0.4,2.5
		c0.3,0.8,0.6,1.4,1.1,2c0.5,0.6,1.1,1,1.8,1.3c0.7,0.3,1.6,0.5,2.5,0.5c0.3,0,0.7,0,1.1-0.1c0.4-0.1,0.8-0.1,1.2-0.3
		s0.8-0.3,1.1-0.4l-0.9-1.7c-0.4,0.2-0.8,0.3-1.2,0.4s-0.9,0.2-1.4,0.2c-0.5,0-1-0.1-1.4-0.3c-0.4-0.2-0.8-0.5-1-1
		c-0.3-0.4-0.5-0.9-0.6-1.4c-0.1-0.5-0.2-1.1-0.2-1.7c0-0.9,0.2-1.7,0.4-2.4c0.3-0.7,0.7-1.2,1.2-1.5c0.5-0.4,1.1-0.5,1.7-0.5
		c0.4,0,0.7,0,0.9,0.1s0.5,0.1,0.8,0.2c0.3,0.1,0.6,0.1,0.9,0.3L152.8,58.3z M155.9,67.4c0-0.3,0.1-0.6,0.3-0.8s0.5-0.4,0.9-0.4h1.8
		v1.3c-0.3,0.3-0.6,0.5-1,0.6c-0.3,0.1-0.6,0.2-1,0.2c-0.2,0-0.4,0-0.6-0.1c-0.2-0.1-0.3-0.2-0.4-0.4
		C156,67.7,155.9,67.6,155.9,67.4z M155,63.8c0.3-0.1,0.7-0.3,1.2-0.4c0.5-0.1,0.9-0.2,1.3-0.2c0.4,0,0.8,0.1,1,0.4
		c0.3,0.2,0.4,0.6,0.4,1v0h-1.7c-1,0-1.8,0.3-2.4,0.7c-0.6,0.5-0.9,1.2-0.9,2.1c0,0.8,0.3,1.5,0.8,2.1c0.5,0.5,1.3,0.8,2.4,0.8
		c0.4,0,0.8-0.1,1.2-0.3c0.4-0.2,0.8-0.5,1.1-0.8l0.4,0.9h1.5v-5.7c0-0.6-0.2-1.2-0.5-1.7c-0.3-0.5-0.8-0.9-1.4-1.2
		c-0.6-0.3-1.2-0.4-1.9-0.4c-0.2,0-0.6,0-1,0.1c-0.4,0.1-0.8,0.2-1.2,0.3c-0.4,0.1-0.7,0.2-0.9,0.4L155,63.8z M165.7,70V57.3
		l-2.3,0.2V70H165.7z M172,70.2c-0.9,0-1.8-0.2-2.5-0.6c-0.7-0.4-1.2-0.9-1.6-1.6c-0.4-0.7-0.6-1.5-0.6-2.4c0-0.9,0.2-1.7,0.6-2.4
		c0.4-0.7,0.9-1.2,1.6-1.6c0.7-0.4,1.5-0.6,2.5-0.6c1,0,1.8,0.2,2.5,0.6c0.7,0.4,1.2,0.9,1.6,1.6c0.4,0.7,0.6,1.5,0.6,2.4
		c0,0.9-0.2,1.7-0.6,2.4s-0.9,1.2-1.6,1.6C173.8,70,172.9,70.2,172,70.2z M172,68.2c0.4,0,0.8-0.1,1.2-0.3c0.3-0.2,0.6-0.5,0.8-0.9
		c0.2-0.4,0.3-0.8,0.3-1.3c0-0.5-0.1-0.9-0.3-1.3c-0.2-0.4-0.5-0.7-0.8-0.9c-0.3-0.2-0.7-0.3-1.2-0.3c-0.4,0-0.8,0.1-1.2,0.3
		c-0.3,0.2-0.6,0.5-0.8,0.9c-0.2,0.4-0.3,0.8-0.3,1.3c0,0.5,0.1,0.9,0.3,1.3c0.2,0.4,0.5,0.7,0.8,0.9
		C171.2,68.1,171.6,68.2,172,68.2z M180.4,70v-5.3c0.3-0.3,0.7-0.6,1.1-0.8c0.4-0.2,0.8-0.4,1.1-0.5c0.3-0.1,0.7-0.2,0.9-0.2
		l-0.5-1.9c-0.3,0-0.7,0.1-1,0.2c-0.4,0.2-0.7,0.3-1.1,0.6c-0.3,0.2-0.6,0.4-0.9,0.6l-0.8-1.5h-1.2V70H180.4z M187,70v-8.7h-2.4V70
		H187z M185.9,60c0.4,0,0.7-0.1,0.9-0.4c0.3-0.3,0.4-0.6,0.4-1c0-0.4-0.1-0.7-0.4-0.9c-0.3-0.3-0.6-0.4-0.9-0.4s-0.7,0.1-0.9,0.4
		c-0.3,0.3-0.4,0.6-0.4,0.9c0,0.4,0.1,0.7,0.4,1C185.2,59.9,185.5,60,185.9,60z M196.8,66.3v-0.7c0-0.8-0.1-1.6-0.4-2.3
		c-0.3-0.7-0.7-1.2-1.3-1.7c-0.6-0.4-1.3-0.6-2.2-0.6c-0.9,0-1.7,0.2-2.3,0.6c-0.7,0.4-1.2,0.9-1.5,1.6c-0.3,0.7-0.5,1.5-0.5,2.4
		c0,0.9,0.2,1.7,0.6,2.4c0.4,0.7,0.9,1.2,1.7,1.6c0.8,0.4,1.7,0.6,2.8,0.6c0.5,0,0.9,0,1.3-0.1c0.4-0.1,0.8-0.2,1.1-0.4
		c0.3-0.2,0.6-0.4,0.9-0.6l-0.7-1.7c-0.4,0.2-0.8,0.4-1.2,0.6c-0.4,0.1-0.9,0.2-1.4,0.2c-0.6,0-1-0.1-1.4-0.2s-0.6-0.4-0.8-0.6
		c-0.2-0.3-0.3-0.6-0.4-1H196.8z M191,64.8c0.1-0.4,0.2-0.7,0.4-1s0.4-0.4,0.6-0.6c0.3-0.1,0.5-0.2,0.8-0.2s0.6,0.1,0.8,0.2
		c0.3,0.1,0.5,0.3,0.6,0.6c0.2,0.3,0.3,0.6,0.4,1H191z M197.8,69.3c0.3,0.2,0.6,0.4,1,0.5c0.4,0.1,0.8,0.2,1.1,0.3s0.7,0.1,0.9,0.1
		c1.2,0,2.1-0.2,2.7-0.7c0.6-0.5,0.9-1.1,0.9-2c0-0.5-0.2-1-0.4-1.3c-0.3-0.4-0.7-0.7-1.1-1c-0.4-0.3-0.9-0.5-1.4-0.6
		c-0.3-0.1-0.6-0.2-0.9-0.4c-0.3-0.1-0.4-0.3-0.4-0.5c0-0.2,0.1-0.4,0.3-0.5c0.2-0.2,0.5-0.2,0.8-0.2c0.4,0,0.8,0.1,1.1,0.2
		c0.4,0.1,0.8,0.3,1.2,0.4l0.7-1.6c-0.3-0.2-0.6-0.4-1-0.5c-0.4-0.1-0.7-0.2-1.1-0.3c-0.3-0.1-0.6-0.1-0.9-0.1
		c-1.1,0-1.9,0.2-2.5,0.7c-0.6,0.5-0.9,1.1-0.9,1.9c0,0.5,0.1,0.9,0.4,1.2c0.3,0.3,0.7,0.6,1.1,0.9c0.5,0.2,0.9,0.4,1.3,0.6
		c0.3,0.1,0.6,0.2,0.8,0.3c0.2,0.1,0.4,0.3,0.5,0.4c0.1,0.1,0.2,0.3,0.2,0.4s-0.1,0.3-0.3,0.4c-0.2,0.1-0.3,0.2-0.6,0.3
		c-0.2,0-0.4,0.1-0.6,0.1c-0.2,0-0.5,0-0.7-0.1c-0.2,0-0.5-0.1-0.8-0.2c-0.3-0.1-0.5-0.2-0.8-0.3L197.8,69.3z M215.5,70
		c0.6,0,1.2-0.1,1.8-0.2c0.5-0.2,1-0.4,1.4-0.7c0.4-0.3,0.7-0.7,0.9-1.1c0.2-0.4,0.3-0.9,0.3-1.5c0-0.8-0.2-1.4-0.5-1.9
		c-0.3-0.5-0.8-0.9-1.4-1.2c0.3-0.3,0.6-0.6,0.9-0.9c0.3-0.4,0.4-0.8,0.4-1.2c0-0.8-0.2-1.5-0.5-2c-0.3-0.5-0.8-0.9-1.4-1.1
		c-0.6-0.2-1.3-0.3-2.1-0.3h-4.8V70H215.5z M214.9,59.7c0.4,0,0.7,0,1,0.1c0.3,0.1,0.5,0.2,0.6,0.5c0.2,0.2,0.2,0.5,0.2,0.9
		c0,0.3-0.1,0.6-0.3,0.9c-0.2,0.2-0.5,0.4-0.8,0.5c-0.3,0.1-0.7,0.2-1.2,0.2h-1.7v-3H214.9z M215.5,64.6c0.6,0,1,0.2,1.4,0.5
		c0.3,0.3,0.5,0.7,0.5,1.3c0,0.3-0.1,0.6-0.3,0.9c-0.2,0.2-0.4,0.4-0.7,0.6c-0.3,0.1-0.7,0.2-1.1,0.2h-2.5v-3.4H215.5z M227.1,61.3
		v6c-0.2,0.1-0.4,0.3-0.7,0.4c-0.2,0.2-0.5,0.3-0.8,0.4c-0.3,0.1-0.6,0.2-0.9,0.2c-0.4,0-0.7-0.1-0.9-0.4c-0.2-0.3-0.3-0.7-0.3-1.3
		v-5.4h-2.3v5.5c0,0.7,0.1,1.3,0.3,1.8c0.2,0.5,0.5,0.9,0.9,1.3c0.4,0.3,1,0.5,1.8,0.5c0.3,0,0.7-0.1,1-0.2c0.4-0.1,0.8-0.2,1.2-0.4
		c0.4-0.2,0.8-0.4,1.2-0.7l0.4,0.9h1.5v-8.7H227.1z M233.8,70v-5.3c0.3-0.3,0.7-0.6,1.1-0.8c0.4-0.2,0.8-0.4,1.1-0.5
		c0.3-0.1,0.7-0.2,0.9-0.2l-0.5-1.9c-0.3,0-0.7,0.1-1,0.2c-0.4,0.2-0.7,0.3-1.1,0.6c-0.3,0.2-0.6,0.4-0.9,0.6l-0.8-1.5h-1.2V70
		H233.8z M240.4,70v-6c0.2-0.1,0.4-0.3,0.7-0.5c0.3-0.2,0.5-0.3,0.8-0.4c0.3-0.1,0.6-0.2,0.9-0.2c0.4,0,0.7,0.1,0.9,0.4
		c0.2,0.3,0.3,0.7,0.3,1.3V70h2.3v-5.5c0-0.7-0.1-1.3-0.3-1.8c-0.2-0.5-0.5-1-0.9-1.3c-0.4-0.3-1-0.5-1.8-0.5c-0.3,0-0.7,0-1,0.1
		c-0.4,0.1-0.8,0.2-1.2,0.4c-0.4,0.2-0.8,0.4-1.2,0.6l-0.4-0.9h-1.5V70H240.4z M256.1,66.3v-0.7c0-0.8-0.1-1.6-0.4-2.3
		c-0.3-0.7-0.7-1.2-1.3-1.7c-0.6-0.4-1.3-0.6-2.2-0.6c-0.9,0-1.7,0.2-2.3,0.6c-0.7,0.4-1.2,0.9-1.5,1.6c-0.3,0.7-0.5,1.5-0.5,2.4
		c0,0.9,0.2,1.7,0.6,2.4c0.4,0.7,0.9,1.2,1.7,1.6c0.8,0.4,1.7,0.6,2.8,0.6c0.5,0,0.9,0,1.3-0.1c0.4-0.1,0.8-0.2,1.1-0.4
		c0.3-0.2,0.6-0.4,0.9-0.6l-0.7-1.7c-0.4,0.2-0.8,0.4-1.2,0.6c-0.4,0.1-0.9,0.2-1.4,0.2c-0.6,0-1-0.1-1.4-0.2s-0.6-0.4-0.8-0.6
		c-0.2-0.3-0.3-0.6-0.4-1H256.1z M250.2,64.8c0.1-0.4,0.2-0.7,0.4-1s0.4-0.4,0.6-0.6s0.5-0.2,0.8-0.2c0.3,0,0.6,0.1,0.8,0.2
		c0.3,0.1,0.5,0.3,0.6,0.6c0.2,0.3,0.3,0.6,0.4,1H250.2z M263.3,68.4l1.1,1.6h1.2V57.3l-2.3,0.2V68.4z M263.8,67.1
		c-0.4,0.4-0.8,0.7-1.2,0.9c-0.4,0.2-0.7,0.3-1.2,0.3c-0.4,0-0.8-0.1-1.1-0.3c-0.3-0.2-0.6-0.5-0.7-0.9c-0.2-0.4-0.2-0.8-0.2-1.3
		c0-0.5,0.1-1,0.2-1.4c0.2-0.4,0.4-0.7,0.7-0.9s0.7-0.3,1.1-0.3c0.4,0,0.8,0.1,1.1,0.3c0.4,0.2,0.8,0.5,1.2,1l0.6-1.6
		c-0.2-0.3-0.4-0.5-0.8-0.8c-0.3-0.3-0.7-0.5-1.1-0.6c-0.4-0.2-0.8-0.2-1.2-0.2c-0.9,0-1.7,0.2-2.4,0.6c-0.7,0.4-1.2,0.9-1.5,1.6
		c-0.3,0.7-0.5,1.5-0.5,2.4c0,0.9,0.2,1.7,0.5,2.4c0.4,0.7,0.9,1.2,1.5,1.6c0.7,0.4,1.4,0.6,2.3,0.6c0.4,0,0.8-0.1,1.2-0.2
		c0.4-0.1,0.7-0.3,1-0.6c0.3-0.3,0.6-0.5,0.9-0.9L263.8,67.1z"/>
	<path class="st2" d="M87.4,108h-3.1c-0.6,0-1.2-0.2-1.6-0.7c-0.4-0.4-0.7-1-0.7-1.7V91.6c0-0.6,0.2-1.2,0.7-1.7
		c0.4-0.4,1-0.7,1.6-0.7h3.1c0.6,0,1.2,0.2,1.6,0.7c0.4,0.4,0.7,1,0.7,1.7v14.1c0,0.6-0.2,1.2-0.7,1.7C88.6,107.8,88,108,87.4,108
		L87.4,108z M108.9,108h-3.1c-0.6,0-1.2-0.2-1.6-0.7c-0.4-0.4-0.7-1-0.7-1.7V82.2c0-0.6,0.2-1.2,0.7-1.7c0.4-0.4,1-0.7,1.6-0.7h3.1
		c0.6,0,1.2,0.2,1.6,0.7c0.4,0.4,0.7,1,0.7,1.7v23.5c0,0.6-0.2,1.2-0.7,1.7C110.1,107.8,109.5,108,108.9,108L108.9,108z M119.7,108
		h-3.1c-0.6,0-1.2-0.2-1.6-0.7c-0.4-0.4-0.7-1-0.7-1.7V71.2c0-0.6,0.2-1.2,0.7-1.7c0.4-0.4,1-0.7,1.6-0.7h3.1c0.6,0,1.2,0.2,1.6,0.7
		c0.4,0.4,0.7,1,0.7,1.7v34.5c0,0.6-0.2,1.2-0.7,1.7C120.9,107.8,120.3,108,119.7,108L119.7,108z M98.2,108h-3.1
		c-0.6,0-1.2-0.2-1.6-0.7c-0.4-0.4-0.7-1-0.7-1.7V63.3c0-0.6,0.2-1.2,0.7-1.7c0.4-0.4,1-0.7,1.6-0.7h3.1c0.6,0,1.2,0.2,1.6,0.7
		c0.4,0.4,0.7,1,0.7,1.7v42.3c0,0.6-0.2,1.2-0.7,1.7C99.4,107.8,98.8,108,98.2,108L98.2,108z"/>
</g>
<text transform="matrix(1 0 0 1 143.8564 104.7201)" class="st3 st4 st5">1715.4 kj</text>
<rect x="136.8" y="31.3" class="st6" width="80.8" height="10.9"/>
</svg>
