<?xml version="1.0" encoding="utf-8"?>
<!-- Generator: Adobe Illustrator 27.9.0, SVG Export Plug-In . SVG Version: 6.00 Build 0)  -->
<svg version="1.1" id="Layer_1" xmlns="http://www.w3.org/2000/svg" xmlns:xlink="http://www.w3.org/1999/xlink" x="0px" y="0px"
	 viewBox="0 0 255 270" style="enable-background:new 0 0 255 270;" xml:space="preserve">
<style type="text/css">
	.st0{fill:#141B22;}
	.st1{fill:#3D4549;}
	.st2{fill:#F44336;}
	.st3{fill:#FFFFFF;}
	.st4{font-family:'ArialRoundedMTBold';}
	.st5{font-size:24px;}
</style>
<g>
	<path class="st0" d="M70,30h115c5.5,0,10,4.5,10,10v130c0,5.5-4.5,10-10,10H70c-5.5,0-10-4.5-10-10V40C60,34.5,64.5,30,70,30z"/>
	<path class="st1" d="M91,116v-12.2h-2.3v5.2h-4.8v-5.3l-2.3,0.1V116h2.3v-5.2h4.8v5.2H91z M101.4,112.3v-0.7c0-0.8-0.1-1.6-0.4-2.3
		c-0.3-0.7-0.7-1.2-1.3-1.7c-0.6-0.4-1.3-0.6-2.2-0.6c-0.9,0-1.7,0.2-2.3,0.6c-0.7,0.4-1.2,0.9-1.5,1.6c-0.3,0.7-0.5,1.5-0.5,2.4
		c0,0.9,0.2,1.7,0.6,2.4c0.4,0.7,0.9,1.2,1.7,1.6c0.8,0.4,1.7,0.6,2.8,0.6c0.5,0,0.9,0,1.3-0.1c0.4-0.1,0.7-0.2,1.1-0.4
		c0.3-0.2,0.6-0.4,0.9-0.6l-0.7-1.7c-0.4,0.2-0.8,0.4-1.2,0.6c-0.4,0.1-0.9,0.2-1.4,0.2c-0.6,0-1-0.1-1.4-0.2s-0.6-0.4-0.8-0.6
		c-0.2-0.3-0.3-0.6-0.4-1H101.4z M95.5,110.8c0.1-0.4,0.2-0.7,0.4-1s0.4-0.4,0.6-0.6c0.3-0.1,0.5-0.2,0.8-0.2c0.3,0,0.6,0.1,0.8,0.2
		c0.3,0.1,0.5,0.3,0.6,0.6s0.3,0.6,0.4,1H95.5z M104.6,113.4c0-0.3,0.1-0.6,0.3-0.8c0.2-0.3,0.5-0.4,0.9-0.4h1.8v1.3
		c-0.3,0.3-0.6,0.5-1,0.6c-0.3,0.1-0.6,0.2-1,0.2c-0.2,0-0.4,0-0.6-0.1c-0.2-0.1-0.3-0.2-0.4-0.4
		C104.6,113.7,104.6,113.6,104.6,113.4z M103.6,109.8c0.3-0.1,0.7-0.3,1.2-0.4c0.5-0.1,0.9-0.2,1.3-0.2c0.4,0,0.8,0.1,1,0.4
		c0.3,0.2,0.4,0.6,0.4,1v0h-1.7c-1,0-1.8,0.3-2.4,0.7c-0.6,0.5-0.9,1.2-0.9,2.1c0,0.8,0.3,1.5,0.8,2.1c0.5,0.5,1.3,0.8,2.4,0.8
		c0.4,0,0.8-0.1,1.2-0.3c0.4-0.2,0.8-0.5,1.1-0.8l0.4,0.9h1.5v-5.7c0-0.6-0.2-1.2-0.5-1.7c-0.3-0.5-0.8-0.9-1.4-1.2
		c-0.6-0.3-1.2-0.4-1.9-0.4c-0.2,0-0.6,0-1,0.1c-0.4,0.1-0.8,0.2-1.2,0.3c-0.4,0.1-0.7,0.2-0.9,0.4L103.6,109.8z M114.2,116v-5.3
		c0.3-0.3,0.7-0.6,1.1-0.8c0.4-0.2,0.8-0.4,1.1-0.5c0.3-0.1,0.7-0.2,0.9-0.2l-0.5-1.9c-0.3,0-0.7,0.1-1,0.2
		c-0.4,0.2-0.7,0.3-1.1,0.6c-0.3,0.2-0.6,0.4-0.9,0.6l-0.8-1.5h-1.2v8.7H114.2z M122.7,107.3h-1.6v-2.5l-2.3,0.4v2.1h-1.2l0,1.8h1.2
		v4.1c0,0.7,0.1,1.2,0.4,1.7c0.3,0.5,0.7,0.8,1.2,1.1c0.5,0.2,1.1,0.4,1.9,0.4c0.2,0,0.4,0,0.6-0.1c0.2,0,0.4-0.1,0.6-0.2
		c0.2-0.1,0.4-0.2,0.5-0.3l-0.7-1.7c-0.2,0.1-0.3,0.1-0.5,0.2c-0.2,0-0.3,0.1-0.5,0.1c-0.4,0-0.7-0.1-1-0.4
		c-0.2-0.3-0.3-0.7-0.3-1.1v-3.7h2.3L122.7,107.3z M133.6,105.7c0.5,0,1,0.1,1.3,0.2c0.4,0.1,0.6,0.3,0.8,0.6
		c0.2,0.3,0.3,0.6,0.3,1.1c0,0.4-0.1,0.8-0.3,1c-0.2,0.3-0.5,0.4-0.8,0.6s-0.8,0.2-1.2,0.2h-1.5v-3.7H133.6z M129.9,103.8V116h2.3
		v-4.6h1.1c0.2,0,0.4,0,0.5,0c0.2,0,0.4,0,0.6,0l2.6,4.6h2.5l-3-5.3c0.6-0.3,1.1-0.7,1.5-1.2c0.4-0.6,0.6-1.2,0.6-2
		c0-0.9-0.2-1.6-0.7-2.1c-0.4-0.6-1-1-1.7-1.2c-0.7-0.3-1.5-0.4-2.4-0.4H129.9z M142.4,113.4c0-0.3,0.1-0.6,0.3-0.8s0.5-0.4,0.9-0.4
		h1.8v1.3c-0.3,0.3-0.6,0.5-1,0.6c-0.3,0.1-0.6,0.2-1,0.2c-0.2,0-0.4,0-0.6-0.1c-0.2-0.1-0.3-0.2-0.4-0.4
		C142.5,113.7,142.4,113.6,142.4,113.4z M141.5,109.8c0.3-0.1,0.7-0.3,1.2-0.4c0.5-0.1,0.9-0.2,1.3-0.2c0.4,0,0.8,0.1,1,0.4
		c0.3,0.2,0.4,0.6,0.4,1v0h-1.7c-1,0-1.8,0.3-2.4,0.7c-0.6,0.5-0.9,1.2-0.9,2.1c0,0.8,0.3,1.5,0.8,2.1c0.5,0.5,1.3,0.8,2.4,0.8
		c0.4,0,0.8-0.1,1.2-0.3c0.4-0.2,0.8-0.5,1.1-0.8l0.4,0.9h1.5v-5.7c0-0.6-0.2-1.2-0.5-1.7c-0.3-0.5-0.8-0.9-1.4-1.2
		c-0.6-0.3-1.2-0.4-1.9-0.4c-0.2,0-0.6,0-1,0.1c-0.4,0.1-0.8,0.2-1.2,0.3c-0.4,0.1-0.7,0.2-0.9,0.4L141.5,109.8z M154,107.3h-1.6
		v-2.5l-2.3,0.4v2.1h-1.2l0,1.8h1.2v4.1c0,0.7,0.1,1.2,0.4,1.7c0.3,0.5,0.7,0.8,1.2,1.1c0.5,0.2,1.1,0.4,1.9,0.4
		c0.2,0,0.4,0,0.6-0.1c0.2,0,0.4-0.1,0.6-0.2c0.2-0.1,0.4-0.2,0.5-0.3l-0.7-1.7c-0.2,0.1-0.3,0.1-0.5,0.2c-0.2,0-0.3,0.1-0.5,0.1
		c-0.4,0-0.7-0.1-1-0.4c-0.2-0.3-0.3-0.7-0.3-1.1v-3.7h2.3L154,107.3z M164.4,112.3v-0.7c0-0.8-0.1-1.6-0.4-2.3
		c-0.3-0.7-0.7-1.2-1.3-1.7c-0.6-0.4-1.3-0.6-2.2-0.6c-0.9,0-1.7,0.2-2.3,0.6c-0.7,0.4-1.2,0.9-1.5,1.6c-0.3,0.7-0.5,1.5-0.5,2.4
		c0,0.9,0.2,1.7,0.6,2.4c0.4,0.7,0.9,1.2,1.7,1.6c0.8,0.4,1.7,0.6,2.8,0.6c0.5,0,0.9,0,1.3-0.1c0.4-0.1,0.8-0.2,1.1-0.4
		c0.3-0.2,0.6-0.4,0.9-0.6l-0.7-1.7c-0.4,0.2-0.8,0.4-1.2,0.6c-0.4,0.1-0.9,0.2-1.4,0.2c-0.6,0-1-0.1-1.4-0.2s-0.6-0.4-0.8-0.6
		c-0.2-0.3-0.3-0.6-0.4-1H164.4z M158.5,110.8c0.1-0.4,0.2-0.7,0.4-1s0.4-0.4,0.6-0.6c0.3-0.1,0.5-0.2,0.8-0.2s0.6,0.1,0.8,0.2
		c0.3,0.1,0.5,0.3,0.6,0.6s0.3,0.6,0.4,1H158.5z"/>
	<path class="st2" d="M98.3,83.8c-0.6,0-1.1-0.2-1.6-0.5c-6.9-4.7-9.9-7.9-11.5-9.9c-3.5-4.3-5.2-8.7-5.2-13.4
		c0.1-5.5,4.4-9.9,9.8-9.9c3.9,0,6.6,2.2,8.1,4c0,0.1,0.1,0.1,0.2,0.1s0.1,0,0.2,0c0.1,0,0.2,0,0.2,0s0.1-0.1,0.2-0.1
		c1.6-1.8,4.2-4,8.1-4c5.3,0,9.7,4.4,9.8,9.9c0,4.8-1.6,9.2-5.2,13.4c-1.6,2-4.6,5.2-11.5,9.9C99.4,83.6,98.8,83.7,98.3,83.8
		L98.3,83.8z"/>
</g>
<text transform="matrix(1 0 0 1 78.2337 156.8109)" class="st3 st4 st5">112 bpm</text>
</svg>
